<svg width="400" height="400" viewBox="0 0 400 400" fill="none" xmlns="http://www.w3.org/2000/svg">
<path d="M199.999 0C89.5449 0 0 89.5446 0 200.001C0 310.463 89.5449 400 199.999 400C310.465 400 400 310.463 400 200.001C400 89.5518 310.465 0.00955316 199.996 0.00955316L199.999 0ZM291.717 288.459C288.135 294.334 280.444 296.197 274.569 292.591C227.612 263.907 168.498 257.411 98.8805 273.317C92.1719 274.846 85.4849 270.642 83.9564 263.931C82.4207 257.22 86.6073 250.533 93.3326 249.004C169.518 231.591 234.867 239.093 287.585 271.311C293.46 274.917 295.323 282.584 291.717 288.459ZM316.196 233.994C311.683 241.338 302.082 243.655 294.75 239.141C240.991 206.089 159.043 196.519 95.4558 215.821C87.2092 218.312 78.4992 213.665 75.9964 205.432C73.5126 197.185 78.1625 188.492 86.3948 185.984C159.028 163.945 249.326 174.621 311.062 212.559C318.394 217.073 320.71 226.671 316.196 233.994ZM318.298 177.286C253.839 138.999 147.491 135.479 85.9482 154.158C76.0656 157.155 65.6146 151.576 62.6198 141.693C59.6249 131.806 65.1991 121.362 75.0888 118.357C145.735 96.9101 263.177 101.054 337.39 145.111C346.298 150.387 349.212 161.867 343.934 170.744C338.679 179.634 327.168 182.564 318.308 177.286H318.298Z" fill="#1ED760"/>
</svg>
