<svg width="1080" height="1080" viewBox="0 0 1080 1080" fill="none" xmlns="http://www.w3.org/2000/svg">
<rect width="1080" height="1080" fill="black"/>
<path d="M538.999 268C428.545 268 339 357.545 339 468.001C339 578.463 428.545 668 538.999 668C649.465 668 739 578.463 739 468.001C739 357.552 649.465 268.01 538.996 268.01L538.999 268ZM630.717 556.459C627.135 562.334 619.444 564.197 613.569 560.591C566.612 531.907 507.498 525.411 437.881 541.317C431.172 542.846 424.485 538.642 422.956 531.931C421.421 525.22 425.607 518.533 432.333 517.004C508.518 499.591 573.867 507.093 626.585 539.311C632.46 542.917 634.323 550.584 630.717 556.459ZM655.196 501.994C650.683 509.338 641.082 511.655 633.75 507.141C579.991 474.089 498.043 464.519 434.456 483.821C426.209 486.312 417.499 481.665 414.996 473.432C412.513 465.185 417.162 456.492 425.395 453.984C498.028 431.945 588.326 442.621 650.062 480.559C657.394 485.073 659.71 494.671 655.196 501.994ZM657.298 445.286C592.839 406.999 486.491 403.479 424.948 422.158C415.066 425.155 404.615 419.576 401.62 409.693C398.625 399.806 404.199 389.362 414.089 386.357C484.735 364.91 602.177 369.054 676.39 413.111C685.298 418.387 688.212 429.867 682.934 438.744C677.679 447.634 666.168 450.564 657.308 445.286H657.298Z" fill="#1ED760"/>
<path d="M320.4 783.16C315.28 783.16 310.6 782.44 306.36 781C302.2 779.48 298.48 777.32 295.2 774.52C292 771.72 289.32 768.32 287.16 764.32L303.48 753.64C305.56 756.6 308.24 759 311.52 760.84C314.88 762.6 318.28 763.48 321.72 763.48C324.36 763.48 326.32 762.96 327.6 761.92C328.96 760.88 329.64 759.6 329.64 758.08C329.64 757.04 329.32 756.12 328.68 755.32C328.12 754.52 326.96 753.76 325.2 753.04C323.44 752.24 320.88 751.48 317.52 750.76C310.48 749.16 304.88 747.16 300.72 744.76C296.56 742.28 293.6 739.32 291.84 735.88C290.08 732.36 289.2 728.36 289.2 723.88C289.2 718.92 290.48 714.44 293.04 710.44C295.6 706.36 299.24 703.12 303.96 700.72C308.76 698.32 314.44 697.12 321 697.12C328.36 697.12 334.64 698.6 339.84 701.56C345.04 704.44 349.04 708.16 351.84 712.72L335.52 724.48C333.68 722 331.2 720.24 328.08 719.2C325.04 718.08 322.12 717.52 319.32 717.52C316.84 717.52 314.84 718 313.32 718.96C311.88 719.84 311.16 721.08 311.16 722.68C311.16 724.28 311.96 725.56 313.56 726.52C315.24 727.48 318.52 728.52 323.4 729.64C330.12 731.16 335.6 733.12 339.84 735.52C344.16 737.84 347.32 740.76 349.32 744.28C351.4 747.72 352.44 751.96 352.44 757C352.44 762.04 351.16 766.56 348.6 770.56C346.04 774.48 342.36 777.56 337.56 779.8C332.76 782.04 327.04 783.16 320.4 783.16ZM394.209 782.68C389.169 782.68 384.769 781.56 381.009 779.32C377.329 777.08 374.449 773.68 372.369 769.12C370.369 764.48 369.369 758.64 369.369 751.6C369.369 745.04 370.409 739.48 372.489 734.92C374.649 730.28 377.609 726.72 381.369 724.24C385.129 721.76 389.489 720.52 394.449 720.52C399.729 720.52 404.369 721.88 408.369 724.6C412.449 727.24 415.649 730.92 417.969 735.64C420.289 740.28 421.449 745.6 421.449 751.6C421.449 757.52 420.249 762.84 417.849 767.56C415.529 772.28 412.289 776 408.129 778.72C404.049 781.36 399.409 782.68 394.209 782.68ZM359.769 803.8V722.2H375.849L381.489 739.6H380.409V762.52H381.489V803.8H359.769ZM390.009 761.44C392.569 761.44 394.769 760.52 396.609 758.68C398.449 756.76 399.369 754.4 399.369 751.6C399.369 748.8 398.449 746.44 396.609 744.52C394.769 742.6 392.569 741.64 390.009 741.64C387.449 741.64 385.209 742.6 383.289 744.52C381.369 746.44 380.409 748.8 380.409 751.6C380.409 754.4 381.369 756.76 383.289 758.68C385.209 760.52 387.449 761.44 390.009 761.44ZM456.641 782.68C450.401 782.68 444.921 781.36 440.201 778.72C435.481 776 431.761 772.32 429.041 767.68C426.401 762.96 425.081 757.6 425.081 751.6C425.081 745.6 426.401 740.28 429.041 735.64C431.761 730.92 435.481 727.24 440.201 724.6C444.921 721.88 450.401 720.52 456.641 720.52C462.881 720.52 468.361 721.88 473.081 724.6C477.881 727.24 481.601 730.92 484.241 735.64C486.881 740.28 488.201 745.6 488.201 751.6C488.201 757.6 486.881 762.96 484.241 767.68C481.601 772.32 477.881 776 473.081 778.72C468.361 781.36 462.881 782.68 456.641 782.68ZM456.641 761.44C459.361 761.44 461.641 760.52 463.481 758.68C465.321 756.84 466.241 754.44 466.241 751.48C466.241 748.52 465.321 746.16 463.481 744.4C461.641 742.56 459.361 741.64 456.641 741.64C453.921 741.64 451.641 742.56 449.801 744.4C448.041 746.16 447.161 748.52 447.161 751.48C447.161 754.44 448.041 756.84 449.801 758.68C451.641 760.52 453.921 761.44 456.641 761.44ZM523.826 781.96C516.306 781.96 510.426 780.28 506.186 776.92C501.946 773.48 499.826 767.76 499.826 759.76V722.92L499.466 722.2L504.026 707.44H521.546V752.8C521.546 755.92 522.226 758.08 523.586 759.28C524.946 760.48 526.786 761.08 529.106 761.08C530.226 761.08 531.306 760.96 532.346 760.72C533.466 760.48 534.386 760.24 535.106 760V780.4C533.426 780.96 531.666 781.36 529.826 781.6C528.066 781.84 526.066 781.96 523.826 781.96ZM490.586 742.24V722.2H535.106V742.24H490.586ZM575.4 783.16C570.28 783.16 565.6 782.44 561.36 781C557.2 779.48 553.48 777.32 550.2 774.52C547 771.72 544.32 768.32 542.16 764.32L558.48 753.64C560.56 756.6 563.24 759 566.52 760.84C569.88 762.6 573.28 763.48 576.72 763.48C579.36 763.48 581.32 762.96 582.6 761.92C583.96 760.88 584.64 759.6 584.64 758.08C584.64 757.04 584.32 756.12 583.68 755.32C583.12 754.52 581.96 753.76 580.2 753.04C578.44 752.24 575.88 751.48 572.52 750.76C565.48 749.16 559.88 747.16 555.72 744.76C551.56 742.28 548.6 739.32 546.84 735.88C545.08 732.36 544.2 728.36 544.2 723.88C544.2 718.92 545.48 714.44 548.04 710.44C550.6 706.36 554.24 703.12 558.96 700.72C563.76 698.32 569.44 697.12 576 697.12C583.36 697.12 589.64 698.6 594.84 701.56C600.04 704.44 604.04 708.16 606.84 712.72L590.52 724.48C588.68 722 586.2 720.24 583.08 719.2C580.04 718.08 577.12 717.52 574.32 717.52C571.84 717.52 569.84 718 568.32 718.96C566.88 719.84 566.16 721.08 566.16 722.68C566.16 724.28 566.96 725.56 568.56 726.52C570.24 727.48 573.52 728.52 578.4 729.64C585.12 731.16 590.6 733.12 594.84 735.52C599.16 737.84 602.32 740.76 604.32 744.28C606.4 747.72 607.44 751.96 607.44 757C607.44 762.04 606.16 766.56 603.6 770.56C601.04 774.48 597.36 777.56 592.56 779.8C587.76 782.04 582.04 783.16 575.4 783.16ZM631.238 782.56C627.238 782.56 623.638 781.72 620.438 780.04C617.238 778.36 614.718 776.04 612.878 773.08C611.038 770.12 610.118 766.76 610.118 763C610.118 758.68 611.118 755.08 613.118 752.2C615.198 749.32 617.838 747.16 621.038 745.72C624.318 744.2 627.798 743.44 631.478 743.44C637.398 743.44 642.238 744.8 645.998 747.52C649.838 750.24 652.278 754.32 653.318 759.76L645.038 757.36V744.64C645.038 742.72 644.318 741.16 642.878 739.96C641.518 738.68 639.518 738.04 636.878 738.04C634.718 738.04 632.198 738.32 629.318 738.88C626.518 739.44 623.558 740.52 620.438 742.12L614.198 727C617.878 725.16 621.918 723.64 626.318 722.44C630.798 721.16 635.478 720.52 640.358 720.52C646.118 720.52 650.958 721.56 654.878 723.64C658.878 725.64 661.878 728.56 663.878 732.4C665.878 736.16 666.878 740.68 666.878 745.96V781H648.158L644.318 769.12L653.318 766.24C652.118 771.12 649.758 775.08 646.238 778.12C642.718 781.08 637.718 782.56 631.238 782.56ZM639.158 768.52C640.998 768.52 642.478 768 643.598 766.96C644.718 765.84 645.278 764.52 645.278 763C645.278 761.48 644.718 760.2 643.598 759.16C642.478 758.04 640.998 757.48 639.158 757.48C637.158 757.48 635.598 758.04 634.478 759.16C633.438 760.2 632.918 761.48 632.918 763C632.918 764.52 633.438 765.84 634.478 766.96C635.598 768 637.158 768.52 639.158 768.52ZM732.383 722.2L712.103 781H690.983L669.503 722.2H691.223L705.143 766.12H697.943L711.263 722.2H732.383ZM761.524 782.08C755.524 782.08 750.284 780.84 745.804 778.36C741.324 775.88 737.844 772.36 735.364 767.8C732.884 763.24 731.644 757.84 731.644 751.6C731.644 745.6 732.884 740.28 735.364 735.64C737.844 730.92 741.324 727.24 745.804 724.6C750.284 721.88 755.524 720.52 761.524 720.52C767.764 720.52 773.084 721.96 777.484 724.84C781.964 727.64 785.404 731.36 787.804 736C790.204 740.64 791.404 745.72 791.404 751.24C791.404 752.68 791.364 754 791.284 755.2C791.204 756.4 791.084 757.32 790.924 757.96H747.004V743.92H773.884L772.804 747.52C772.804 744.4 771.884 741.88 770.044 739.96C768.284 738.04 765.524 737.08 761.764 737.08C758.324 737.08 755.564 738.08 753.484 740.08C751.484 742 750.484 744.64 750.484 748V754.72C750.484 758.4 751.604 761.2 753.844 763.12C756.164 765.04 759.324 766 763.324 766C766.364 766 768.804 765.44 770.644 764.32C772.564 763.12 774.164 761.64 775.444 759.88L789.484 767.2C787.084 771.68 783.404 775.28 778.444 778C773.564 780.72 767.924 782.08 761.524 782.08Z" fill="#1ED760"/>
</svg>
